<svg height="512" viewBox="0 0 64 64" width="512" xmlns="http://www.w3.org/2000/svg"><g id="Teacher_Man" data-name="Teacher Man"><path d="m29 22.74v5.26l-4 4-4-4v-5.26a6.97916 6.97916 0 0 0 8 0z" fill="#efaeac"/><path d="m62.96 26.6-.01-.01a2.24384 2.24384 0 0 0 -3.47245.24667l-.46755.62333.49976-19.01074a1.49056 1.49056 0 0 1 1.49-1.44926 1.49056 1.49056 0 0 1 1.49 1.4497z" fill="#ffd07b"/><path d="m62.95 25.59a2.63967 2.63967 0 0 0 -3.7.55l-9.74 13.29-7.51-6.43-8-3-5-3-4 4-4-4-5 3-4.10681 1.54a5.99991 5.99991 0 0 0 -3.89319 5.618v25.842h33a1 1 0 0 0 1-1v-15l8.09052 3.43616a1 1 0 0 0 1.25384-.41516l12.29564-21.001a2.65874 2.65874 0 0 0 .36-1.33 2.62817 2.62817 0 0 0 -1.05-2.1z" fill="#dbedff"/><path d="m25 58 4-3-2-19 4.092-7.745-2.092-1.255-4 4-4-4-2.092 1.255 4.092 7.745-2 19z" fill="#ff8086"/><path d="m29 1h-8a4.00812 4.00812 0 0 0 -3.89355 3.08008 5.00779 5.00779 0 0 0 -4.10645 4.91992v8.5a.99974.99974 0 0 0 1 1h22a.99974.99974 0 0 0 1-1v-8.5a8.00917 8.00917 0 0 0 -8-8z" fill="#414151"/><path d="m21 55 4 3 4-3-2-19h-4z" fill="#ea6060"/><path d="m62.95 25.59a2.63967 2.63967 0 0 0 -3.7.55l-9.74 13.29-7.51-6.43-8-3v33h7a1 1 0 0 0 1-1v-15l8.09052 3.43616a1 1 0 0 0 1.25384-.41516l12.29564-21.001a2.65874 2.65874 0 0 0 .36-1.33 2.62817 2.62817 0 0 0 -1.05-2.1z" fill="#676072"/><path d="m16 30-4.10675 1.54a6 6 0 0 0 -3.89325 5.618v25.842h8z" fill="#676072"/><path d="m33 14a4.252 4.252 0 0 0 -1.30762.19824 1.00024 1.00024 0 0 0 -.69238.95166v1.8501a5.89448 5.89448 0 0 1 -.44336 2.26709.99972.99972 0 0 0 .47559 1.27686 4.41381 4.41381 0 0 0 1.96777.45605 3.77932 3.77932 0 0 0 4-3.5 3.77932 3.77932 0 0 0 -4-3.5z" fill="#efaeac"/><path d="m19 17v-1.8501a1.00024 1.00024 0 0 0 -.69238-.95166 4.252 4.252 0 0 0 -1.30762-.19824 3.77932 3.77932 0 0 0 -4 3.5 3.77932 3.77932 0 0 0 4 3.5 4.42294 4.42294 0 0 0 1.96777-.45557 1.00078 1.00078 0 0 0 .47657-1.27832 5.865 5.865 0 0 1 -.44434-2.26611z" fill="#efaeac"/><path d="m13 57a2.00591 2.00591 0 0 1 -2 2v4h-9a1.95523 1.95523 0 0 1 -1.41-.59 1.955 1.955 0 0 1 -.59-1.41 2.00587 2.00587 0 0 1 2-2v-4a1.95523 1.95523 0 0 1 -1.41-.59 1.955 1.955 0 0 1 -.59-1.41 2.00587 2.00587 0 0 1 2-2h9v4a2.01456 2.01456 0 0 1 2 2z" fill="#ffd07b"/><path d="m2 59a2 2 0 0 0 0 4h9v-4z" fill="#ff8086"/><path d="m2 51a2 2 0 0 0 0 4h9v-4z" fill="#c99ae8"/><path d="m62.95 25.59a2.63967 2.63967 0 0 0 -3.7.55l-1.97443 2.694.00055.00439 4.496 3.37195 1.86788-3.19034a2.65874 2.65874 0 0 0 .36-1.33 2.62817 2.62817 0 0 0 -1.05-2.1z" fill="#efaeac"/><path d="m30 34-5-3 4-4 5 3z" fill="#bbd5ef"/><path d="m20 34 5-3-4-4-5 3z" fill="#bbd5ef"/><path d="m32 11c-6.53809 0-9.42285-1.81738-9.44531-1.832a.99953.99953 0 0 0 -1.418.32812c-.85739 1.46921-3.11814 1.50388-3.13669 1.50388a.99974.99974 0 0 0 -1 1v5a8 8 0 0 0 16 0v-5a.99974.99974 0 0 0 -1-1z" fill="#ffd3ca"/><g fill="#4d4b5e"><path d="m44 44v3.85l-2-.85v-3a1 1 0 0 1 2 0z"/><path d="m49.51 39.43-1.52 2.07a1.00919 1.00919 0 0 1 -.8.41 1.02837 1.02837 0 0 1 -.6-.2 1.0019 1.0019 0 0 1 -.21-1.4l1.6-2.19z"/></g></g></svg>